<svg width="83" height="82" viewBox="0 0 83 82" fill="none" xmlns="http://www.w3.org/2000/svg">
<g filter="url(#filter0_d_159_243)">
<circle cx="38.5" cy="36" r="26" fill="white"/>
</g>
<path d="M50.2399 44.379C49.7863 45.4272 49.2493 46.3918 48.6269 47.279C47.7789 48.4882 47.0845 49.3251 46.5493 49.7901C45.7197 50.553 44.8308 50.9436 43.879 50.9659C43.1957 50.9659 42.3717 50.7715 41.4124 50.3771C40.4501 49.9844 39.5656 49.7901 38.757 49.7901C37.9089 49.7901 36.9993 49.9844 36.0263 50.3771C35.0519 50.7715 34.2669 50.977 33.6668 50.9975C32.754 51.0361 31.8442 50.6343 30.9361 49.7901C30.3565 49.2844 29.6315 48.4177 28.763 47.1901C27.8312 45.879 27.0651 44.3587 26.465 42.6254C25.8222 40.7532 25.5 38.9403 25.5 37.1852C25.5 35.1747 25.9344 33.4407 26.8046 31.9876C27.4885 30.8204 28.3982 29.8997 29.5369 29.2238C30.6756 28.5479 31.9059 28.2035 33.2309 28.1814C33.9558 28.1814 34.9065 28.4057 36.088 28.8464C37.2661 29.2886 38.0225 29.5129 38.3542 29.5129C38.6021 29.5129 39.4425 29.2507 40.8671 28.7279C42.2143 28.2431 43.3513 28.0424 44.2827 28.1214C46.8067 28.3251 48.703 29.3201 49.9639 31.1126C47.7067 32.4804 46.59 34.396 46.6123 36.8535C46.6326 38.7677 47.3271 40.3607 48.6919 41.6254C49.3102 42.2125 50.0011 42.6661 50.7695 42.9884C50.603 43.4717 50.4269 43.9346 50.2399 44.379ZM44.4512 21.6002C44.4512 23.1005 43.9031 24.5014 42.8105 25.798C41.4921 27.3394 39.8973 28.2301 38.1679 28.0896C38.1459 27.9096 38.1331 27.7202 38.1331 27.5211C38.1331 26.0808 38.7601 24.5393 39.8736 23.279C40.4295 22.6409 41.1365 22.1103 41.9939 21.687C42.8494 21.2701 43.6587 21.0395 44.4197 21C44.442 21.2006 44.4512 21.4012 44.4512 21.6001V21.6002Z" fill="black"/>
<defs>
<filter id="filter0_d_159_243" x="0.5" y="0" width="82" height="82" filterUnits="userSpaceOnUse" color-interpolation-filters="sRGB">
<feFlood flood-opacity="0" result="BackgroundImageFix"/>
<feColorMatrix in="SourceAlpha" type="matrix" values="0 0 0 0 0 0 0 0 0 0 0 0 0 0 0 0 0 0 127 0" result="hardAlpha"/>
<feMorphology radius="5" operator="erode" in="SourceAlpha" result="effect1_dropShadow_159_243"/>
<feOffset dx="3" dy="5"/>
<feGaussianBlur stdDeviation="10"/>
<feColorMatrix type="matrix" values="0 0 0 0 0.255938 0 0 0 0 0.306881 0 0 0 0 0.4875 0 0 0 0.25 0"/>
<feBlend mode="normal" in2="BackgroundImageFix" result="effect1_dropShadow_159_243"/>
<feBlend mode="normal" in="SourceGraphic" in2="effect1_dropShadow_159_243" result="shape"/>
</filter>
</defs>
</svg>
