<svg width="24" height="24" viewBox="0 0 24 24" fill="none" xmlns="http://www.w3.org/2000/svg">
<path fill-rule="evenodd" clip-rule="evenodd" d="M16.4748 5.77153C16.541 5.71365 16.6259 5.68175 16.7138 5.68175C16.8017 5.68175 16.8867 5.71365 16.9528 5.77153L17.9098 6.72953C17.9677 6.79586 17.9997 6.88095 17.9997 6.96903C17.9997 7.05711 17.9677 7.1422 17.9098 7.20853L13.1248 11.9995L17.9098 16.7905C17.9677 16.8569 17.9997 16.942 17.9997 17.03C17.9997 17.1181 17.9677 17.2032 17.9098 17.2695L16.9528 18.2275C16.8867 18.2854 16.8017 18.3173 16.7138 18.3173C16.6259 18.3173 16.541 18.2854 16.4748 18.2275L11.6898 13.4365L6.90479 18.2275C6.83846 18.2855 6.75336 18.3174 6.66528 18.3174C6.5772 18.3174 6.49211 18.2855 6.42578 18.2275L5.46881 17.2695C5.41086 17.2032 5.37891 17.1181 5.37891 17.03C5.37891 16.942 5.41086 16.8569 5.46881 16.7905L10.2538 11.9995L5.46881 7.20853C5.41086 7.1422 5.37891 7.05711 5.37891 6.96903C5.37891 6.88095 5.41086 6.79586 5.46881 6.72953L6.42578 5.77153C6.49211 5.71358 6.5772 5.68164 6.66528 5.68164C6.75336 5.68164 6.83846 5.71358 6.90479 5.77153L11.6898 10.5615L16.4748 5.77153Z" fill="#1187F4"/>
</svg>

