<svg width="24" height="18" viewBox="0 0 24 18" fill="none" xmlns="http://www.w3.org/2000/svg">
<path id="Path 151" d="M21.7504 -0.000351821C22.0468 -0.00569114 22.3411 0.0497635 22.6153 0.162589C22.8894 0.275415 23.1376 0.443218 23.3444 0.655648C23.5568 0.86244 23.7246 1.11057 23.8374 1.38472C23.9502 1.65887 24.0057 1.95323 24.0004 2.24965V15.7496C24.0057 16.0461 23.9502 16.3404 23.8374 16.6146C23.7246 16.8887 23.5568 17.1369 23.3444 17.3436C23.1376 17.5561 22.8894 17.7239 22.6153 17.8367C22.3411 17.9495 22.0468 18.005 21.7504 17.9996H2.25035C1.95394 18.005 1.65958 17.9495 1.38542 17.8367C1.11127 17.7239 0.863144 17.5561 0.656352 17.3436C0.443922 17.1369 0.276118 16.8887 0.163292 16.6146C0.0504665 16.3404 -0.00498733 16.0461 0.000351996 15.7496V2.24965C-0.00498733 1.95323 0.0504665 1.65887 0.163292 1.38472C0.276118 1.11057 0.443922 0.86244 0.656352 0.655648C0.863144 0.443218 1.11127 0.275415 1.38542 0.162589C1.65958 0.0497635 1.95394 -0.00569114 2.25035 -0.000351821H21.7504ZM2.25035 1.49965C2.15087 1.49621 2.05174 1.51316 1.95905 1.54944C1.86635 1.58573 1.78206 1.64059 1.71135 1.71065C1.64129 1.78136 1.58643 1.86565 1.55015 1.95834C1.51386 2.05103 1.49692 2.15017 1.50035 2.24965V4.17165C2.59435 5.10898 4.95369 7.01531 8.57835 9.89065L9.00035 10.2656C9.46877 10.681 9.97046 11.0573 10.5004 11.3906C10.931 11.7343 11.452 11.9458 12.0004 11.9996C12.5487 11.9458 13.0697 11.7343 13.5004 11.3906C14.0078 11.0465 14.4931 10.6708 14.9534 10.2656L15.4224 9.89065C19.047 7.01598 21.4064 5.10965 22.5004 4.17165V2.24965C22.5038 2.15017 22.4868 2.05103 22.4506 1.95834C22.4143 1.86565 22.3594 1.78136 22.2894 1.71065C22.2186 1.64059 22.1344 1.58573 22.0417 1.54944C21.949 1.51316 21.8498 1.49621 21.7504 1.49965H2.25035ZM21.7504 16.4996C21.8498 16.5031 21.949 16.4861 22.0417 16.4499C22.1344 16.4136 22.2186 16.3587 22.2894 16.2886C22.3594 16.2179 22.4143 16.1336 22.4506 16.041C22.4868 15.9483 22.5038 15.8491 22.5004 15.7496V6.14065C21.4064 7.01598 19.3594 8.65665 16.3594 11.0626L15.8904 11.4376C15.3232 11.9253 14.7286 12.3801 14.1094 12.7996C13.4819 13.2181 12.7534 13.4599 12.0004 13.4996C11.2473 13.4599 10.5188 13.2181 9.89135 12.7996C9.26068 12.3957 8.66464 11.9402 8.10935 11.4376L7.64035 11.0626C4.64035 8.65665 2.59335 7.01598 1.49935 6.14065V15.7496C1.49592 15.8491 1.51286 15.9483 1.54915 16.041C1.58543 16.1336 1.64029 16.2179 1.71035 16.2886C1.78118 16.3588 1.86563 16.4138 1.95851 16.4501C2.05138 16.4863 2.1507 16.5032 2.25035 16.4996H21.7504Z" fill="#1187F4"/>
</svg>
