<svg width="83" height="82" viewBox="0 0 83 82" fill="none" xmlns="http://www.w3.org/2000/svg">
<g filter="url(#filter0_d_159_236)">
<circle cx="38.5" cy="36" r="26" fill="white"/>
</g>
<path d="M38.5 51C46.7842 51 53.5 44.2842 53.5 36C53.5 27.7157 46.7842 21 38.5 21C30.2157 21 23.5 27.7157 23.5 36C23.5 44.2842 30.2157 51 38.5 51Z" fill="#1977F3"/>
<path d="M44.3389 40.3365L45.0033 35.9996H40.8436V33.1856C40.8436 32.0002 41.4237 30.8421 43.2884 30.8421H45.1805V27.1506C45.1805 27.1506 43.4635 26.8574 41.8224 26.8574C38.3967 26.8574 36.1565 28.9331 36.1565 32.6941V35.9996H32.3469V40.3365H36.1565V50.8182C36.9201 50.9384 37.7027 50.9996 38.5001 50.9996C39.2974 50.9996 40.08 50.9363 40.8436 50.8182V40.3365H44.3389Z" fill="white"/>
<defs>
<filter id="filter0_d_159_236" x="0.5" y="0" width="82" height="82" filterUnits="userSpaceOnUse" color-interpolation-filters="sRGB">
<feFlood flood-opacity="0" result="BackgroundImageFix"/>
<feColorMatrix in="SourceAlpha" type="matrix" values="0 0 0 0 0 0 0 0 0 0 0 0 0 0 0 0 0 0 127 0" result="hardAlpha"/>
<feMorphology radius="5" operator="erode" in="SourceAlpha" result="effect1_dropShadow_159_236"/>
<feOffset dx="3" dy="5"/>
<feGaussianBlur stdDeviation="10"/>
<feColorMatrix type="matrix" values="0 0 0 0 0.255938 0 0 0 0 0.306881 0 0 0 0 0.4875 0 0 0 0.25 0"/>
<feBlend mode="normal" in2="BackgroundImageFix" result="effect1_dropShadow_159_236"/>
<feBlend mode="normal" in="SourceGraphic" in2="effect1_dropShadow_159_236" result="shape"/>
</filter>
</defs>
</svg>
