<svg width="83" height="82" viewBox="0 0 83 82" fill="none" xmlns="http://www.w3.org/2000/svg">
<g filter="url(#filter0_d_159_230)">
<circle cx="38.5" cy="36" r="26" fill="white"/>
</g>
<path d="M53.4842 36.2807C53.4842 35.0516 53.3821 34.1547 53.1613 33.2246H38.7988V38.7721H47.2292C47.0593 40.1507 46.1415 42.2269 44.1018 43.622L44.0732 43.8077L48.6144 47.2455L48.929 47.2762C51.8184 44.6685 53.4842 40.8317 53.4842 36.2807Z" fill="#4285F4"/>
<path d="M38.7988 50.8973C42.929 50.8973 46.3963 49.5685 48.9289 47.2764L44.1018 43.6223C42.81 44.5026 41.0763 45.1171 38.7988 45.1171C34.7535 45.1171 31.3202 42.5095 30.0963 38.9053L29.9169 38.9202L25.1949 42.4912L25.1332 42.6589C27.6487 47.5421 32.8158 50.8973 38.7988 50.8973Z" fill="#34A853"/>
<path d="M30.0963 38.9045C29.7734 37.9744 29.5865 36.9777 29.5865 35.948C29.5865 34.9182 29.7734 33.9216 30.0793 32.9915L30.0708 32.7934L25.2897 29.165L25.1333 29.2377C24.0965 31.2641 23.5016 33.5397 23.5016 35.948C23.5016 38.3564 24.0965 40.6318 25.1333 42.6582L30.0963 38.9045Z" fill="#FBBC05"/>
<path d="M38.7988 26.78C41.6712 26.78 43.6088 27.9925 44.7137 29.0058L49.0309 24.8866C46.3794 22.4782 42.929 21 38.7988 21C32.8158 21 27.6487 24.3551 25.1332 29.2382L30.0793 32.992C31.3202 29.3877 34.7535 26.78 38.7988 26.78Z" fill="#EB4335"/>
<defs>
<filter id="filter0_d_159_230" x="0.5" y="0" width="82" height="82" filterUnits="userSpaceOnUse" color-interpolation-filters="sRGB">
<feFlood flood-opacity="0" result="BackgroundImageFix"/>
<feColorMatrix in="SourceAlpha" type="matrix" values="0 0 0 0 0 0 0 0 0 0 0 0 0 0 0 0 0 0 127 0" result="hardAlpha"/>
<feMorphology radius="5" operator="erode" in="SourceAlpha" result="effect1_dropShadow_159_230"/>
<feOffset dx="3" dy="5"/>
<feGaussianBlur stdDeviation="10"/>
<feColorMatrix type="matrix" values="0 0 0 0 0.255938 0 0 0 0 0.306881 0 0 0 0 0.4875 0 0 0 0.25 0"/>
<feBlend mode="normal" in2="BackgroundImageFix" result="effect1_dropShadow_159_230"/>
<feBlend mode="normal" in="SourceGraphic" in2="effect1_dropShadow_159_230" result="shape"/>
</filter>
</defs>
</svg>
