<svg width="23" height="19" viewBox="0 0 23 19" fill="none" xmlns="http://www.w3.org/2000/svg">
<path d="M5.52344 4.01953C7.10547 2.82422 9.07422 1.875 11.5 1.875C14.3125 1.875 16.5977 3.17578 18.25 4.72266C19.9023 6.23438 20.9922 8.0625 21.5195 9.32812C21.625 9.60938 21.625 9.92578 21.5195 10.207C21.0625 11.332 20.1133 12.9492 18.707 14.3555L22.3984 17.2734C22.7852 17.5547 22.8555 18.082 22.5391 18.4336C22.2578 18.8203 21.7305 18.8906 21.3789 18.5742L0.566406 2.26172C0.179688 1.98047 0.109375 1.45312 0.425781 1.10156C0.707031 0.714844 1.23438 0.644531 1.58594 0.960938L5.52344 4.01953ZM6.89453 5.10938L8.51172 6.375C9.32031 5.67188 10.3398 5.25 11.5 5.25C13.9609 5.25 16 7.28906 16 9.75C16 10.5234 15.7891 11.2266 15.4727 11.8242L17.3711 13.3008C18.5664 12.1055 19.4102 10.7344 19.8672 9.75C19.375 8.69531 18.4609 7.21875 17.0898 5.95312C15.6484 4.61719 13.7852 3.5625 11.5 3.5625C9.70703 3.5625 8.16016 4.19531 6.89453 5.10938ZM14.1016 10.7695C14.2422 10.4531 14.3125 10.1016 14.3125 9.75C14.3125 8.20312 13.0469 6.9375 11.5 6.9375C11.4648 6.9375 11.4297 6.9375 11.3945 6.9375C11.4648 7.14844 11.5 7.32422 11.5 7.5C11.5 7.88672 11.3945 8.20312 11.2539 8.51953L14.1016 10.7695ZM14.4531 15.3398L15.9297 16.5C14.6289 17.2031 13.1523 17.625 11.5 17.625C8.65234 17.625 6.36719 16.3594 4.71484 14.8125C3.0625 13.2656 1.97266 11.4375 1.44531 10.207C1.33984 9.92578 1.33984 9.60938 1.44531 9.32812C1.79688 8.51953 2.35938 7.5 3.16797 6.44531L4.46875 7.5C3.83594 8.30859 3.37891 9.11719 3.09766 9.75C3.58984 10.8047 4.50391 12.3164 5.875 13.582C7.31641 14.918 9.17969 15.9375 11.5 15.9375C12.5547 15.9375 13.5391 15.7266 14.4531 15.3398ZM7 9.75C7 9.67969 7 9.57422 7 9.46875L8.96875 11.0156C9.32031 11.7539 10.0234 12.3164 10.8672 12.4922L12.8359 14.0742C12.4141 14.1797 11.957 14.25 11.4648 14.25C9.00391 14.25 6.96484 12.2461 6.96484 9.75H7Z" fill="#A5A5A5"/>
</svg>
