<svg width="33" height="28" viewBox="0 0 33 28" fill="none" xmlns="http://www.w3.org/2000/svg">
<path d="M32.1172 24.6719C32.1172 24.6172 30.9141 23.3047 30.0938 21.6641C31.5703 20.1875 32.5 18.3281 32.5 16.25C32.5 11.875 28.2891 8.26562 22.8203 7.66406C21.125 4.49219 17.0781 2.25 12.375 2.25C6.08594 2.25 1 6.1875 1 11C1 13.0234 1.875 14.8828 3.40625 16.4141C2.53125 18.0547 1.32812 19.3672 1.32812 19.4219C1 19.75 0.890625 20.2969 1.05469 20.7891C1.27344 21.2266 1.71094 21.5547 2.25781 21.5547C5.15625 21.5547 7.50781 20.4062 9.09375 19.4219C9.58594 19.5312 10.0781 19.5859 10.625 19.6953C12.3203 22.8125 16.3672 25.0547 21.125 25.0547C22.2188 25.0547 23.3125 24.8906 24.3516 24.6719C25.9375 25.6562 28.2891 26.8047 31.2422 26.8047C31.7344 26.8047 32.1719 26.4766 32.3906 26.0391C32.5547 25.5469 32.5 25 32.1172 24.6719ZM9.47656 17.6719L8.76562 17.5078L8.10938 17.9453C7.01562 18.6562 5.375 19.4766 3.35156 19.6953C3.78906 19.0938 4.44531 18.2188 4.9375 17.1797L5.53906 16.0312L4.60938 15.1562C3.73438 14.2812 2.75 12.9141 2.75 11C2.75 7.17188 7.07031 4 12.375 4C17.6797 4 22 7.17188 22 11C22 14.8828 17.6797 18 12.375 18C11.3906 18 10.4062 17.8906 9.47656 17.6719ZM25.3359 23.1953L24.6797 22.7578L23.9688 22.9766C23.0391 23.1953 22.0547 23.3047 21.125 23.3047C17.5156 23.3047 14.4531 21.8828 12.7578 19.75C18.8281 19.5859 23.75 15.7578 23.75 11C23.75 10.5078 23.6406 10.0156 23.5312 9.52344C27.6875 10.2891 30.75 13.0234 30.75 16.25C30.75 18.1641 29.7109 19.5312 28.8359 20.4062L27.9609 21.2812L28.5078 22.4297C29 23.4688 29.6562 24.3438 30.0938 24.9453C28.0703 24.7266 26.4297 23.9062 25.3359 23.1953Z" fill="#1187F4"/>
</svg>
